<svg xmlns="http://www.w3.org/2000/svg" width="1200" height="630" viewBox="0 0 1200 630">
  <defs>
    <linearGradient id="accent" x1="0" y1="0" x2="1" y2="0">
      <stop offset="0" stop-color="#4285F4"/>
      <stop offset="1" stop-color="#c084fc"/>
    </linearGradient>
    <linearGradient id="bg" x1="0" y1="0" x2="1" y2="1">
      <stop offset="0" stop-color="#13131f"/>
      <stop offset="1" stop-color="#0c0c14"/>
    </linearGradient>
  </defs>

  <!-- backdrop -->
  <rect width="1200" height="630" fill="url(#bg)"/>
  <rect width="1200" height="630" fill="none"/>

  <!-- terminal window -->
  <rect x="80" y="90" width="1040" height="450" rx="14" fill="#0f0f17" stroke="#404570" stroke-width="1.5"/>
  <!-- title bar -->
  <rect x="80" y="90" width="1040" height="44" rx="14" fill="#16161e"/>
  <rect x="80" y="118" width="1040" height="16" fill="#16161e"/>
  <circle cx="112" cy="112" r="7" fill="#EA4335"/>
  <circle cx="138" cy="112" r="7" fill="#fabd2f"/>
  <circle cx="164" cy="112" r="7" fill="#34A853"/>
  <text x="600" y="117" font-family="'IBM Plex Mono','JetBrains Mono',monospace" font-size="16" fill="#54566e" text-anchor="middle">akshansh.codes</text>

  <!-- prompt + name -->
  <text x="120" y="225" font-family="'IBM Plex Mono','JetBrains Mono',monospace" font-size="22" fill="#4285F4">&gt;_</text>
  <text x="120" y="300" font-family="'IBM Plex Mono','JetBrains Mono',monospace" font-size="62" font-weight="700" fill="url(#accent)">Akshansh Kumar</text>
  <text x="122" y="350" font-family="'IBM Plex Mono','JetBrains Mono',monospace" font-size="26" fill="#c8ccd8">Senior Software Engineer · D. E. Shaw</text>

  <!-- command chips -->
  <g font-family="'IBM Plex Mono','JetBrains Mono',monospace" font-size="20">
    <rect x="120" y="400" width="120" height="40" rx="6" fill="#16161e" stroke="#404570"/>
    <text x="180" y="426" fill="#8ab4f8" text-anchor="middle">/resume</text>
    <rect x="256" y="400" width="120" height="40" rx="6" fill="#16161e" stroke="#404570"/>
    <text x="316" y="426" fill="#8ab4f8" text-anchor="middle">/theme</text>
    <rect x="392" y="400" width="140" height="40" rx="6" fill="#16161e" stroke="#404570"/>
    <text x="462" y="426" fill="#8ab4f8" text-anchor="middle">/contact</text>
    <rect x="548" y="400" width="270" height="40" rx="6" fill="#16161e" stroke="#404570"/>
    <text x="683" y="426" fill="#54566e" text-anchor="middle">ask my AI anything…</text>
  </g>

  <!-- caret -->
  <rect x="828" y="408" width="12" height="24" fill="#4285F4"/>

  <text x="120" y="500" font-family="'IBM Plex Mono','JetBrains Mono',monospace" font-size="18" fill="#54566e">An interactive terminal portfolio — type a command to explore.</text>
</svg>
